<?xml version="1.0" encoding="UTF-8"?>
<!DOCTYPE svg PUBLIC "-//W3C//DTD SVG 1.1//EN" "http://www.w3.org/Graphics/SVG/1.1/DTD/svg11.dtd">
<!-- Creator: CorelDRAW X7 -->
<svg xmlns="http://www.w3.org/2000/svg" xml:space="preserve" width="100%" height="100%" version="1.1" style="shape-rendering:geometricPrecision; text-rendering:geometricPrecision; image-rendering:optimizeQuality; fill-rule:evenodd; clip-rule:evenodd"
viewBox="0 0 4961 3508"
 xmlns:xlink="http://www.w3.org/1999/xlink">
 <defs>
  <style type="text/css">
   <![CDATA[
    .str0 {stroke:black;stroke-width:2.36238}
    .str1 {stroke:black;stroke-width:2.99904}
    .fil1 {fill:#DBD4C2}
    .fil2 {fill:#DBD4C2}
    .fil0 {fill:#E3F7E8}
   ]]>
  </style>
 </defs>
 <g id="Слой_x0020_1">
  <metadata id="CorelCorpID_0Corel-Layer"/>
  <path class="fil0 str0" d="M2205 218l541 0 0 34 35 0 0 -34 1218 0 0 807 -24 202 -20 -14 6 82 38 4 0 827 -24 0 0 24 24 0 0 687 -31 7 8 32 0 0c1,3 1,6 1,9 0,17 -12,32 -28,35l-1 -4 -179 44 -1 -7 -72 17 1 8 -148 36 12 52 149 -36 1 6 7 -1c2,1 3,3 4,4l-397 97 -86 -200 -187 132 64 119 -1448 0 -23 0 -822 0 -68 -172 0 -1286 671 -248 323 -690 456 -573zm1572 1760l-174 0 0 9 -34 0 0 -9 -113 0 0 -20 -60 0 0 11 -9 0 -17 0 0 -8 -76 0 0 4 -50 0 -67 0 0 36 67 0 50 0 0 13 93 0 0 9 69 0 0 -8 113 0 0 -8 34 0 0 8 174 0 0 -37zm-25 -138l32 0 0 30 -32 0 0 -30zm82 -13l19 0 0 52 -19 0 0 -52zm-69 -282l14 0 0 26 -14 0 0 -26zm-99 0l15 0 0 26 -15 0 0 -26zm-5 -163l60 0 0 19 -60 0 0 -19zm-77 -117l-28 0 0 96 28 0 0 -96zm-71 -284l68 0 0 40 21 0 0 76 -100 0 0 -41 -14 0 0 -75 -19 0 0 -82 -457 0 0 -113 367 0 0 -120 -367 0 0 -112 675 0 0 345 -174 0 0 82zm-340 1098l215 0 0 49 17 0 0 28 -29 0 0 -28 -203 0 0 -49zm229 -321l11 0 0 26 -11 0 0 -26zm-221 -4l133 0 0 20 -93 0 0 45 371 0 0 45 -411 0 0 -110zm-223 53l31 0 0 25 92 0 0 51 -123 0 0 -76zm-171 -50l47 0 0 131 -47 0 0 -131zm133 318l-37 0 0 -22 37 0 0 22zm18 -106l105 0 0 38 -105 0 0 -38zm-116 -3l63 0 0 19 -23 0 0 105 -40 0 0 -124zm125 217l75 0 0 -8 95 0 0 54 -10 0 0 16 -21 0 0 -16 -139 0 0 -46zm-422 -9l198 0 0 66 -171 0 0 -32 -27 0 0 -34zm515 -605l44 0 0 44 -44 0 0 -44zm538 200l-36 0 0 -25 14 0 0 -20 9 0 0 20 13 0 0 25zm8 -205l-44 0 0 126 44 0 0 -126zm364 -81l-64 0 0 101 64 0 0 -101zm-139 36l41 0 0 217 -41 0 0 -217zm188 1393l0 60 -224 55c1,-2 1,-4 1,-6l8 -2 -2 -7 179 -44 -5 -21c19,-4 35,-17 43,-35zm-522 10l21 -15 52 75 -21 14 -52 -74zm107 -1l97 -22 11 46 -97 22 -11 -46zm-51 -36l29 0 0 33 -29 0 0 -33zm-184 82l93 -64 69 105 -34 24 -29 -43 -25 18 30 42 -34 24 -70 -106zm-91 -568l-23 0 0 -18 7 0 0 -5 9 0 0 5 7 0 0 18zm-84 -53l125 0 0 18 394 0 0 -70 -394 0 0 23 -125 0 0 29zm284 53l218 0 0 49 -218 0 0 -49zm-96 395l391 0 0 -177 -56 0 0 34 -279 0 0 -34 -56 0 0 177zm-351 -247l172 0 0 66 84 0 0 181 -256 0 0 -247zm68 466l109 -77 15 20 -109 78 -15 -21zm-716 -565l105 0 0 -13 526 0 0 13 139 0 0 -136 -770 0 0 136zm-12 76l642 0 0 275 -44 0 0 25 -57 0 0 -25 -17 0 0 23 -216 0 0 -23 0 -24 -44 0 0 24 22 0 0 29 -79 0 0 -29 -65 0 0 35 -142 0 0 -35 -12 0 0 -32 12 0 0 -183 -10 0 0 -39 10 0 0 -21zm103 477l-43 0 0 47 16 0 0 -28 27 0 0 -19zm-16 -54l193 0 0 38 -193 0 0 -38zm-318 17l122 0 0 53 -122 0 0 -53zm2 -441l133 0 0 -31 52 0 0 205 -65 0 0 -94 -57 0 0 28 -8 0 0 10 -28 0 0 26 -27 0 0 -144zm-20 205l70 0 0 141 -70 0 0 -141zm-70 -204l0 159 -419 0 0 -41 20 0 0 -43 -20 0 0 -75 419 0zm-92 416l109 0 0 41 -16 0 0 -10 -77 0 0 10 13 0 0 11 -13 0 -16 0 0 -52zm-189 -177l254 0 26 0 0 65 -26 0 -254 0 0 -65zm-124 0l83 0 0 65 -83 0 0 -65zm-71 183l75 0 0 48 -75 0 0 -48zm-127 4l98 0 0 49 -98 0 0 -49zm-91 -2l56 0 0 33 -56 0 0 -33zm-107 -3l100 0 0 40 -100 0 0 -40zm-265 4l189 0 0 65 -189 0 0 -65zm418 -292l32 0 0 36 -32 0 0 -36zm-415 -133l49 0 0 -8 78 0 0 48 24 0 0 31 -133 0 0 -31 -18 0 0 -40zm552 300l-397 0 0 -82 397 0 0 82zm-247 -235l239 0 0 -47 -239 0 0 47zm607 -357l-54 0 0 -28 54 0 0 28zm100 0l-36 0 0 -28 36 0 0 28zm305 0l-185 0 0 -28 185 0 0 28zm2 -131l68 0 0 -19 31 0 0 46 -99 0 0 -27zm-3 298l-22 0 0 -18 6 0 0 -5 10 0 0 5 6 0 0 18zm-22 -83l22 0 0 17 -6 0 0 5 -10 0 0 -5 -6 0 0 -17zm-561 145l43 0 0 -19 15 0 0 19 107 0 0 -21 142 0 0 -70 -156 0 0 29 -151 0 0 62zm-224 -62l81 0 0 36 0 25 -23 0 0 -25 -58 0 0 -36zm-231 0l161 0 0 62 -161 0 0 -62zm9 -47l556 0 0 -17 168 0 0 -31 -95 0 0 -16 -629 0 0 64zm74 -118l31 0 0 27 -31 0 0 -27zm1105 -245l82 0 0 86 -82 0 0 -86zm41 16c15,0 27,12 27,27 0,15 -12,27 -27,27 -15,0 -27,-12 -27,-27 0,-15 12,-27 27,-27zm-339 -16l189 0 0 86 -189 0 0 -86zm41 16c15,0 28,12 28,27 0,15 -13,27 -28,27 -15,0 -27,-12 -27,-27 0,-15 12,-27 27,-27zm105 0c15,0 27,12 27,27 0,15 -12,27 -27,27 -15,0 -27,-12 -27,-27 0,-15 12,-27 27,-27zm-362 -46l90 0 0 186 -90 0 0 -186zm-267 108l76 0 0 46 -76 0 0 -46zm-150 149l-34 0 0 -32 34 0 0 32zm61 -17l22 0 0 -42 -22 0 0 42zm88 -215l37 0 0 33 -37 0 0 -33zm-88 93l22 0 0 60 -22 0 0 -60zm7 -93l37 0 0 33 -37 0 0 -33zm23 -27l72 0 0 17 -72 0 0 -17zm163 2l90 0 0 186 -90 0 0 39 -83 0 0 -39 83 0 0 -186zm102 -132l150 0 0 48 -150 0 0 -48zm-37 -57l19 0 0 35 -19 0 0 -35zm-210 17l26 0 0 68 -26 0 0 -68zm-734 612l216 0 0 34 0 11 -171 0 0 -11 -45 0 0 -34zm378 -608l206 0 0 67 -206 0 0 -67zm163 172l-116 0 0 189 116 0 0 -136 65 0 0 -53 -65 0zm-450 -3l148 0 0 51 -148 0 0 -51zm-107 247l200 0 225 -130 0 -31 0 -67 -92 0 0 67 -333 0 0 161zm1118 -604l-54 0 0 38 54 0 0 -38zm22 -147l17 0 0 64 -17 0 0 -64zm108 137l49 0 0 -19 34 0 0 19 18 0 0 126 -52 0 -19 0 0 39 -30 0 0 -39 0 -126zm-1 282l87 0 0 -28 -87 0 0 28zm450 -99l-280 0 0 104 280 0 0 -104zm72 -271l49 0 0 18 25 0 0 60 -25 0 0 103 -49 0 0 -65 -78 0 0 61 -261 0 0 -214 261 0 0 139 78 0 0 -24 0 -60 0 -18zm192 -20l161 0 0 51 -161 0 0 -51zm-436 -246l88 0 0 64 -88 0 0 -64zm97 5l271 0 0 38 -271 0 0 -38zm148 -64l148 0 0 -24 159 0 0 24 209 0 0 -201 -89 0 0 28 -280 0 0 59 -147 0 0 114zm613 -172l20 0 0 -11 86 0 0 11 58 0 0 142 -164 0 0 -142zm-153 -308l228 0 0 52 -228 0 0 -52zm850 -189l-44 0 0 96 44 0 0 -96zm35 -157l-74 0 0 43 74 0 0 -43zm-1192 -40l145 0 0 70 -145 0 0 -70z"/>
  <rect class="fil1 str1" x="2786" y="314" width="144.542" height="69.5367"/>
  <rect class="fil1 str1" x="2746" y="218" width="35.9401" height="34.3785"/>
  <rect class="fil1 str1" x="3904" y="354" width="73.4429" height="42.9729"/>
  <rect class="fil1 str1" x="3899" y="511" width="44.5344" height="96.1005"/>
  <polygon class="fil1 str1" points="3012,554 3687,554 3687,899 3012,899 3012,786 3379,786 3379,666 3012,666 "/>
  <rect class="fil1 str1" x="3093" y="700" width="228.142" height="51.5682"/>
  <polygon class="fil1 str1" points="3246,1008 3266,1008 3266,997 3352,997 3352,1008 3410,1008 3410,1150 3246,1150 "/>
  <polygon class="fil1 str1" points="2633,1180 2781,1180 2781,1156 2940,1156 2940,1180 3149,1180 3149,979 3060,979 3060,1007 2780,1007 2780,1066 2633,1066 "/>
  <rect class="fil1 str1" x="2485" y="1244" width="270.333" height="37.5028"/>
  <rect class="fil1 str1" x="2388" y="1239" width="87.5073" height="63.2858"/>
  <rect class="fil1 str1" x="2293" y="1468" width="261" height="214"/>
  <rect class="fil1 str1" x="2824" y="1485" width="160.95" height="51.5672"/>
  <polygon class="fil1 str1" points="2632,1505 2681,1505 2681,1523 2706,1523 2706,1583 2681,1583 2681,1686 2632,1686 2632,1583 2632,1523 "/>
  <rect class="fil1 str1" x="2280" y="1776" width="280" height="104"/>
  <rect class="fil1 str1" x="2110" y="1847" width="87.5061" height="27.3457"/>
  <polygon class="fil1 str1" points="2111,1593 2160,1593 2160,1719 2141,1719 2141,1758 2111,1758 2111,1719 "/>
  <polygon class="fil1 str1" points="2160,1719 2212,1719 2212,1593 2194,1593 2194,1574 2160,1574 2160,1593 "/>
  <rect class="fil1 str1" x="2003" y="1456" width="17.1887" height="64.0666"/>
  <rect class="fil1 str1" x="1927" y="1603" width="53.9107" height="38.2847"/>
  <polygon class="fil1 str1" points="863,2207 1063,2207 1288,2077 1288,2046 1288,1979 1196,1979 1196,2046 863,2046 "/>
  <rect class="fil1 str1" x="970" y="1960" width="148.448" height="51.5672"/>
  <rect class="fil1 str1" x="1304" y="1963" width="116" height="189"/>
  <rect class="fil1 str1" x="1420" y="1963" width="65.6305" height="53.1288"/>
  <rect class="fil1 str1" x="1257" y="1791" width="206.265" height="67.1932"/>
  <polygon class="fil1 str1" points="879,2399 1095,2399 1095,2433 1095,2444 924,2444 924,2433 879,2433 "/>
  <rect class="fil1 str1" x="1613" y="1787" width="25.783" height="67.974"/>
  <rect class="fil1 str1" x="1823" y="1770" width="19.5333" height="35.1593"/>
  <rect class="fil1 str1" x="1860" y="1827" width="149.23" height="48.4406"/>
  <rect class="fil1 str1" x="1758" y="1959" width="89.8508" height="186.733"/>
  <rect class="fil1 str1" x="1595" y="1957" width="72.6621" height="16.4067"/>
  <rect class="fil1 str1" x="1572" y="1984" width="36.722" height="32.8147"/>
  <rect class="fil1 str1" x="1565" y="2077" width="21.8768" height="60.1604"/>
  <rect class="fil1 str1" x="1653" y="1984" width="36.722" height="32.8147"/>
  <rect class="fil1 str1" x="1565" y="2157" width="21.8768" height="42.1909"/>
  <rect class="fil1 str1" x="1470" y="2184" width="33.5954" height="32.0339"/>
  <rect class="fil1 str1" x="1654" y="2067" width="75.7864" height="45.3164"/>
  <rect class="fil1 str1" x="1675" y="2145" width="82.8192" height="38.2847"/>
  <rect class="fil1 str1" x="1921" y="1959" width="89.8508" height="186.733"/>
  <path class="fil1 str1" d="M2137 1989l189 0 0 86 -189 0 0 -86zm41 16c15,0 28,12 28,27 0,15 -13,27 -28,27 -15,0 -27,-12 -27,-27 0,-15 12,-27 27,-27zm105 0c15,0 27,12 27,27 0,15 -12,27 -27,27 -15,0 -27,-12 -27,-27 0,-15 12,-27 27,-27z"/>
  <path class="fil1 str1" d="M2435 1989l82 0 0 86 -82 0 0 -86zm41 16c15,0 27,12 27,27 0,15 -12,27 -27,27 -15,0 -27,-12 -27,-27 0,-15 12,-27 27,-27z"/>
  <rect class="fil1 str1" x="1330" y="2234" width="31.2531" height="27.3457"/>
  <polygon class="fil1 str1" points="1256,2352 1812,2352 1812,2335 1980,2335 1980,2304 1885,2304 1885,2288 1256,2288 "/>
  <rect class="fil1 str1" x="1247" y="2399" width="160.95" height="62.5015"/>
  <polygon class="fil1 str1" points="1478,2399 1559,2399 1559,2435 1559,2460 1536,2460 1536,2435 1478,2435 "/>
  <polygon class="fil1 str1" points="1702,2461 1745,2461 1745,2442 1760,2442 1760,2461 1867,2461 1867,2440 2009,2440 2009,2370 1853,2370 1853,2399 1702,2399 "/>
  <polygon class="fil1 str1" points="2263,2316 2285,2316 2285,2333 2279,2333 2279,2338 2269,2338 2269,2333 2263,2333 "/>
  <polygon class="fil1 str1" points="2285,2399 2263,2399 2263,2381 2269,2381 2269,2376 2279,2376 2279,2381 2285,2381 "/>
  <polygon class="fil1 str1" points="2288,2101 2356,2101 2356,2082 2387,2082 2387,2128 2288,2128 "/>
  <rect class="fil1 str1" x="2101" y="2204" width="185.171" height="28.1265"/>
  <rect class="fil1 str1" x="1945" y="2204" width="35.5491" height="28.1265"/>
  <rect class="fil1 str1" x="1827" y="2204" width="53.9107" height="28.1265"/>
  <rect class="fil1 str1" x="1274" y="2542" width="239.08" height="46.8779"/>
  <rect class="fil1 str1" x="1124" y="2742" width="396.905" height="82.8192"/>
  <polygon class="fil1 str1" points="969,2524 1018,2524 1018,2516 1096,2516 1096,2564 1120,2564 1120,2595 987,2595 987,2564 969,2564 "/>
  <rect class="fil1 str1" x="1384" y="2657" width="31.2519" height="35.9401"/>
  <rect class="fil1 str1" x="966" y="2949" width="189.077" height="64.8485"/>
  <rect class="fil1 str1" x="1231" y="2945" width="99.2259" height="40.6282"/>
  <rect class="fil1 str1" x="1338" y="2948" width="55.4734" height="32.8147"/>
  <rect class="fil1 str1" x="1429" y="2950" width="97.6644" height="49.2226"/>
  <rect class="fil1 str1" x="1556" y="2946" width="75.0056" height="48.4406"/>
  <rect class="fil1 str1" x="1627" y="2763" width="83.6011" height="64.8485"/>
  <rect class="fil1 str1" x="1751" y="2763" width="253.926" height="64.8485"/>
  <rect class="fil1 str1" x="2005" y="2763" width="26.5638" height="64.8485"/>
  <polygon class="fil1 str1" points="1940,2940 2049,2940 2049,2981 2033,2981 2033,2971 1956,2971 1956,2981 1969,2981 1969,2992 1956,2992 1940,2992 "/>
  <polygon class="fil1 str1" points="2032,2524 2032,2683 1613,2683 1613,2642 1633,2642 1633,2599 1613,2599 1613,2524 "/>
  <rect class="fil1 str1" x="2554" y="1607" width="78.131" height="14.0633"/>
  <rect class="fil1 str1" x="2102" y="2728" width="69.5367" height="141.417"/>
  <polygon class="fil1 str1" points="2122,2523 2255,2523 2255,2492 2307,2492 2307,2697 2242,2697 2242,2603 2185,2603 2185,2631 2177,2631 2177,2641 2149,2641 2149,2667 2122,2667 "/>
  <rect class="fil1 str1" x="2120" y="2964" width="121.884" height="53.9107"/>
  <rect class="fil1 str1" x="2438" y="2947" width="192.983" height="37.5028"/>
  <polygon class="fil1 str1" points="2454,3001 2411,3001 2411,3048 2427,3048 2427,3020 2454,3020 "/>
  <polygon class="fil1 str1" points="2351,2524 2993,2524 2993,2799 2949,2799 2949,2824 2892,2824 2892,2799 2875,2799 2875,2822 2659,2822 2659,2799 2659,2775 2615,2775 2615,2799 2637,2799 2637,2828 2558,2828 2558,2799 2493,2799 2493,2834 2351,2834 2351,2799 2339,2799 2339,2767 2351,2767 2351,2584 2341,2584 2341,2545 2351,2545 "/>
  <polygon class="fil1 str1" points="2363,2448 2468,2448 2468,2435 2994,2435 2994,2448 3133,2448 3133,2312 2363,2312 "/>
  <rect class="fil1 str1" transform="matrix(0.623488 -0.442216 0.442216 0.623488 3079.13 3013.08)" width="175.101" height="33.2588"/>
  <polygon class="fil1 str1" points="3011,2547 3183,2547 3183,2613 3267,2613 3267,2794 3011,2794 "/>
  <polygon class="fil1 str1" points="3362,2794 3753,2794 3753,2617 3697,2617 3697,2651 3418,2651 3418,2617 3362,2617 "/>
  <rect class="fil1 str1" x="3458" y="2399" width="217.985" height="49.3112"/>
  <polygon class="fil1 str1" points="3174,2346 3299,2346 3299,2364 3693,2364 3693,2294 3299,2294 3299,2317 3174,2317 "/>
  <polygon class="fil1 str1" points="3258,2399 3235,2399 3235,2381 3242,2381 3242,2376 3251,2376 3251,2381 3258,2381 "/>
  <rect class="fil1 str1" x="3975" y="2126" width="23.8305" height="23.8305"/>
  <rect class="fil1 str1" x="1645" y="3187" width="23.8305" height="23.8305"/>
  <rect class="fil2 str1" x="743" y="2304" width="23.8305" height="23.8305"/>
  <polygon class="fil1 str1" points="3349,2967 3442,2903 3511,3008 3477,3032 3448,2989 3423,3007 3453,3049 3419,3073 "/>
  <rect class="fil1 str1" x="3533" y="2885" width="28.9085" height="32.8147"/>
  <rect class="fil1 str1" transform="matrix(0.975556 -0.219752 0.219752 0.975556 3584.49 2920.94)" width="99.2259" height="46.8779"/>
  <polygon class="fil1 str1" points="3477,2922 3498,2907 3550,2982 3529,2996 "/>
  <polygon class="fil1 str1" points="3549,3014 3948,2916 3961,2968 3561,3066 "/>
  <path class="fil1 str1" d="M3711 3036l7 -1c8,10 21,16 34,13 14,-3 23,-15 24,-27l8 -2 -16 -66 -72 17 15 66z"/>
  <polygon class="fil1 str1" points="4004,2847 4219,2795 4230,2842 4016,2894 "/>
  <polygon class="fil1 str1" points="3968,2844 4002,2836 4009,2868 3976,2876 "/>
  <path class="fil1 str1" d="M4003 2870c1,5 2,10 2,15 0,30 -21,55 -49,62l-7 -27c16,-3 28,-18 28,-35 0,-3 0,-6 -1,-9l27 -6z"/>
  <rect class="fil1 str1" x="3811" y="1519" width="40.6282" height="217.204"/>
  <rect class="fil1 str1" x="3886" y="1483" width="64.0666" height="101.571"/>
  <rect class="fil1 str1" x="3542" y="1564" width="43.7537" height="126.572"/>
  <polygon class="fil1 str1" points="3578,1769 3542,1769 3542,1744 3556,1744 3556,1724 3565,1724 3565,1744 3578,1744 "/>
  <rect class="fil1 str1" x="3040" y="1569" width="44.5344" height="44.5344"/>
  <polygon class="fil1 str1" points="2525,2174 2723,2174 2723,2240 2552,2240 2552,2208 2525,2208 "/>
  <polygon class="fil1 str1" points="2947,2183 3022,2183 3022,2175 3117,2175 3117,2229 3107,2229 3107,2245 3086,2245 3086,2229 2947,2229 "/>
  <polygon class="fil1 str1" points="2822,1966 2885,1966 2885,1985 2862,1985 2862,2090 2822,2090 "/>
  <rect class="fil1 str1" x="2938" y="1969" width="105.477" height="38.2836"/>
  <rect class="fil1 str1" x="2883" y="2053" width="36.722" height="21.8768"/>
  <rect class="fil1 str1" x="2787" y="1757" width="47.6599" height="131.261"/>
  <polygon class="fil1 str1" points="2958,1807 2989,1807 2989,1832 3081,1832 3081,1883 2958,1883 "/>
  <polygon class="fil1 str1" points="3181,1754 3314,1754 3314,1774 3221,1774 3221,1819 3592,1819 3592,1864 3181,1864 "/>
  <rect class="fil1 str1" x="3402" y="1758" width="10.939" height="26.565"/>
  <rect class="fil1 str1" x="3173" y="2079" width="214.861" height="48.4418"/>
  <rect class="fil1 str1" x="3488" y="981" width="93.757" height="75.0056"/>
  <polygon class="fil1 str1" points="3602,1097 3502,1097 3502,1056 3581,1056 3581,1021 3602,1021 "/>
  <rect class="fil1 str1" x="3469" y="899" width="44.5344" height="82.1234"/>
  <rect class="fil1 str1" x="3556" y="1265" width="28.9085" height="96.1005"/>
  <rect class="fil1 str1" x="3661" y="1382" width="60.1604" height="19.5322"/>
  <rect class="fil1 str1" x="3666" y="1545" width="14.0633" height="25.783"/>
  <rect class="fil1 str1" x="3765" y="1545" width="14.0633" height="25.783"/>
  <rect class="fil1 str1" x="3834" y="1827" width="18.7514" height="52.3468"/>
  <rect class="fil1 str1" x="3752" y="1840" width="32.0339" height="29.6904"/>
  <rect class="fil1 str1" x="3177" y="1965" width="67.192" height="35.9401"/>
  <rect class="fil1 str1" x="3244" y="1965" width="50.0045" height="35.9401"/>
  <rect class="fil1 str1" x="3603" y="1978" width="174.233" height="37.5028"/>
  <rect class="fil1 str1" x="3569" y="1987" width="34.3774" height="20.3141"/>
  <rect class="fil1 str1" x="3456" y="1978" width="112.51" height="37.5028"/>
  <polygon class="fil1 str1" points="3294,2014 3387,2014 3387,1969 3370,1969 3370,1961 3294,1961 "/>
  <polygon class="fil1 str1" points="3456,2023 3387,2023 3387,1969 3396,1969 3396,1958 3456,1958 "/>
  <rect class="fil1 str1" x="3376" y="2128" width="28.9085" height="27.7332"/>
 </g>
</svg>
